<?xml version="1.0" standalone="no"?>
<!DOCTYPE svg PUBLIC "-//W3C//DTD SVG 20010904//EN"
 "http://www.w3.org/TR/2001/REC-SVG-20010904/DTD/svg10.dtd">
<svg version="1.0" xmlns="http://www.w3.org/2000/svg"
 width="2437.000000pt" height="2437.000000pt" viewBox="0 0 2437.000000 2437.000000"
 preserveAspectRatio="xMidYMid meet">
<metadata>
Created by potrace 1.11, written by Peter Selinger 2001-2013
</metadata>
<g transform="translate(0.000000,2437.000000) scale(0.100000,-0.100000)"
fill="#000000" stroke="none">
<path d="M11768 24365 c-2 -2 -69 -6 -149 -9 -81 -4 -166 -8 -190 -11 -24 -2
-84 -6 -134 -10 -49 -3 -101 -7 -115 -9 -14 -3 -59 -7 -100 -11 -41 -3 -88 -8
-105 -10 -16 -3 -52 -7 -80 -9 -104 -11 -143 -16 -315 -41 -77 -11 -94 -14
-140 -20 -25 -3 -52 -8 -60 -10 -8 -2 -35 -7 -60 -10 -77 -10 -427 -79 -595
-116 -49 -12 -97 -22 -105 -24 -110 -24 -485 -124 -640 -171 -269 -82 -788
-260 -885 -304 -11 -5 -72 -30 -135 -55 -63 -26 -130 -53 -147 -61 -18 -8 -48
-20 -65 -28 -676 -294 -1273 -620 -1864 -1018 -148 -100 -408 -284 -509 -362
-33 -25 -73 -56 -90 -68 -52 -40 -330 -261 -335 -267 -3 -3 -32 -28 -65 -56
-235 -195 -477 -418 -745 -685 -312 -312 -508 -526 -760 -830 -34 -41 -69 -84
-78 -95 -370 -446 -798 -1070 -1119 -1631 -485 -847 -850 -1699 -1132 -2644
-81 -273 -197 -721 -227 -875 -2 -11 -15 -74 -28 -140 -14 -66 -27 -131 -30
-145 -2 -14 -12 -65 -21 -115 -22 -116 -21 -112 -30 -165 -4 -25 -9 -54 -11
-65 -3 -17 -20 -128 -39 -245 -2 -14 -6 -45 -10 -70 -3 -25 -8 -56 -10 -70 -2
-14 -7 -52 -11 -85 -3 -33 -8 -68 -9 -77 -2 -9 -6 -48 -10 -85 -3 -37 -8 -79
-11 -93 -2 -14 -6 -50 -9 -80 -11 -137 -16 -187 -20 -220 -2 -19 -7 -78 -10
-130 -4 -52 -8 -115 -10 -140 -27 -375 -27 -1339 0 -1630 3 -37 13 -160 20
-270 2 -36 7 -86 10 -112 5 -50 11 -106 20 -198 7 -72 32 -270 40 -321 3 -14
7 -52 10 -84 4 -33 8 -62 10 -65 2 -4 7 -31 10 -61 4 -30 13 -92 21 -139 8
-47 17 -98 20 -115 12 -75 57 -309 75 -395 11 -52 23 -106 25 -120 33 -180
185 -761 274 -1045 18 -55 33 -104 34 -110 7 -30 96 -294 153 -450 344 -953
787 -1828 1356 -2680 154 -231 170 -254 371 -524 503 -675 1155 -1375 1762
-1891 16 -14 72 -61 124 -106 103 -87 306 -250 410 -329 36 -27 70 -53 75 -58
6 -4 64 -47 130 -96 1058 -775 2227 -1356 3489 -1736 257 -77 789 -209 964
-240 18 -3 63 -12 101 -20 38 -8 97 -19 132 -25 35 -5 75 -12 89 -15 14 -3 39
-7 55 -9 17 -3 44 -7 60 -10 17 -2 50 -8 75 -11 25 -4 52 -9 61 -10 9 -2 40
-6 69 -10 29 -4 62 -9 74 -11 12 -2 41 -6 66 -9 25 -3 81 -10 125 -15 44 -5
105 -12 135 -15 70 -6 168 -16 200 -20 14 -1 72 -6 130 -10 58 -4 121 -8 140
-10 255 -24 1183 -24 1420 0 19 2 82 6 140 10 58 4 121 9 140 11 19 2 64 6
100 9 64 6 381 43 430 50 14 2 45 7 70 10 37 5 221 34 385 61 17 2 64 11 105
19 86 17 106 21 175 34 142 27 517 117 765 185 403 109 1045 335 1395 491 33
14 69 30 80 35 290 122 773 365 1098 552 78 45 162 93 187 107 25 13 47 27 50
31 3 3 50 32 105 65 55 33 105 63 110 67 6 4 114 76 240 160 635 423 1221 904
1770 1454 290 291 461 477 733 798 68 81 279 347 357 451 50 66 92 122 95 125
12 10 250 350 328 467 149 223 387 610 499 813 513 925 880 1826 1157 2835 31
112 101 393 112 448 2 10 5 26 8 35 3 9 7 28 10 42 2 14 12 59 21 100 9 41 18
84 21 95 2 11 6 31 9 45 17 78 82 435 90 490 3 25 15 99 25 165 10 66 21 143
25 170 4 28 8 64 11 80 2 17 6 53 9 80 3 28 7 61 10 75 2 14 7 59 11 100 3 41
7 82 9 90 2 8 6 51 10 95 3 44 8 96 10 115 2 19 6 80 10 135 4 55 8 114 10
131 20 172 28 1214 12 1469 -11 181 -17 274 -22 335 -13 161 -17 208 -20 237
-3 18 -7 63 -10 100 -3 37 -8 84 -10 103 -3 19 -7 55 -10 80 -3 25 -7 61 -10
80 -3 19 -7 53 -9 75 -10 79 -17 131 -31 220 -7 50 -16 108 -20 130 -8 55 -14
95 -20 125 -3 14 -7 41 -10 60 -11 67 -67 365 -70 370 -2 3 -6 21 -9 40 -7 43
-7 45 -41 195 -55 250 -152 618 -216 829 -17 54 -32 106 -34 115 -6 32 -164
498 -213 631 -238 644 -510 1232 -849 1835 -53 94 -104 181 -113 195 -10 14
-26 41 -36 60 -58 107 -376 598 -496 765 -201 280 -505 676 -607 791 -20 22
-47 53 -60 70 -37 45 -213 246 -236 270 -11 11 -58 63 -105 115 -107 119 -533
545 -664 664 -54 50 -108 99 -120 110 -54 52 -396 342 -526 446 -426 341 -905
669 -1430 980 -261 154 -756 406 -1089 553 -106 47 -195 86 -198 86 -2 0 -23
9 -46 19 -274 125 -1058 394 -1357 467 -8 2 -84 21 -168 43 -146 38 -517 123
-592 136 -19 3 -42 8 -50 10 -8 2 -31 7 -50 10 -19 3 -84 15 -145 25 -125 22
-154 27 -210 35 -22 4 -80 13 -130 20 -84 13 -193 27 -310 40 -27 3 -66 7 -85
10 -108 13 -285 28 -475 41 -49 3 -112 8 -140 10 -60 5 -1012 14 -1017 9z
m847 -379 c99 -4 198 -9 220 -11 22 -1 92 -6 155 -10 63 -4 121 -8 130 -10 8
-1 56 -6 105 -10 50 -4 97 -8 105 -10 8 -2 49 -6 90 -10 41 -4 84 -9 95 -11
11 -2 43 -6 70 -9 28 -3 61 -7 75 -10 14 -2 45 -7 70 -10 25 -3 52 -8 60 -10
8 -2 39 -7 69 -10 30 -4 63 -9 75 -11 12 -2 48 -9 81 -14 33 -5 71 -12 85 -15
14 -3 75 -14 135 -25 61 -11 130 -25 155 -30 44 -10 71 -16 119 -26 12 -3 53
-12 90 -20 36 -9 75 -18 86 -20 11 -2 56 -13 100 -24 44 -12 130 -34 190 -50
452 -116 996 -304 1490 -515 311 -133 793 -370 1008 -497 26 -15 50 -28 52
-28 3 0 197 -112 225 -130 8 -5 31 -19 50 -30 19 -11 49 -29 65 -40 17 -11 39
-24 50 -30 33 -16 280 -178 450 -294 317 -217 745 -546 965 -742 19 -17 78
-68 130 -114 211 -184 573 -535 760 -736 85 -91 227 -247 276 -304 21 -25 45
-51 52 -59 7 -7 46 -52 85 -100 40 -47 74 -88 77 -91 9 -8 133 -161 155 -191
11 -15 70 -91 131 -170 199 -258 520 -721 639 -921 5 -10 49 -82 96 -160 48
-79 97 -161 109 -183 12 -22 39 -69 60 -105 165 -283 390 -735 545 -1090 37
-85 73 -168 80 -185 14 -32 154 -388 185 -470 254 -677 469 -1493 590 -2235
11 -69 23 -137 25 -151 3 -14 7 -43 10 -65 2 -21 7 -57 11 -79 3 -22 7 -51 9
-65 2 -14 6 -43 9 -65 5 -37 8 -63 21 -177 9 -80 24 -233 30 -298 3 -36 8 -85
10 -110 2 -25 7 -90 11 -145 3 -55 8 -116 9 -135 24 -301 24 -1216 0 -1470 -2
-19 -6 -82 -10 -140 -3 -57 -8 -120 -10 -140 -2 -19 -6 -71 -10 -115 -3 -44
-8 -91 -10 -105 -2 -14 -6 -54 -10 -90 -3 -36 -10 -96 -15 -135 -5 -38 -12
-92 -15 -120 -8 -70 -14 -115 -31 -230 -9 -55 -17 -112 -19 -127 -2 -15 -9
-53 -14 -85 -6 -32 -13 -76 -16 -98 -4 -22 -8 -47 -10 -55 -2 -8 -7 -30 -10
-47 -3 -18 -7 -48 -10 -65 -8 -46 -71 -349 -89 -428 -9 -36 -22 -94 -30 -130
-68 -300 -198 -751 -323 -1120 -99 -294 -295 -795 -395 -1010 -17 -36 -46
-100 -64 -142 -60 -135 -299 -607 -399 -788 -183 -330 -493 -831 -512 -827
-10 2 -71 59 -379 354 -34 32 -133 126 -220 209 -87 84 -186 178 -219 209 -63
60 -361 345 -450 430 -179 170 -385 367 -416 396 -20 19 -115 109 -210 201
-96 91 -199 190 -229 218 -58 55 -372 354 -425 405 -17 17 -37 35 -45 42 -13
10 -15 -126 -15 -1159 0 -643 -2 -1173 -5 -1177 -3 -3 -1318 -6 -2923 -6
-2910 0 -2918 0 -2922 20 -2 11 -4 3373 -4 7470 1 4098 0 7455 0 7462 -1 9
-48 12 -181 11 l-180 0 -1 -27 c-1 -34 -1 -15323 0 -15336 1 -7 1008 -10 3106
-10 2061 0 3106 -3 3108 -10 2 -5 3 -571 2 -1257 0 -1231 -1 -1247 -20 -1265
-60 -55 -516 -375 -722 -508 -528 -339 -1153 -668 -1719 -905 -304 -127 -713
-275 -1034 -374 -100 -30 -387 -112 -430 -121 -8 -2 -71 -18 -140 -35 -69 -17
-136 -33 -150 -36 -14 -2 -52 -11 -85 -19 -33 -8 -71 -16 -85 -19 -14 -2 -81
-15 -150 -29 -69 -14 -138 -28 -155 -31 -16 -3 -82 -14 -145 -25 -63 -11 -135
-22 -160 -26 -25 -3 -74 -11 -110 -16 -36 -5 -76 -12 -90 -14 -14 -2 -50 -6
-81 -10 -31 -3 -65 -7 -75 -9 -11 -2 -50 -7 -89 -10 -38 -4 -81 -9 -95 -11
-14 -2 -56 -6 -95 -9 -38 -4 -95 -9 -125 -11 -82 -8 -273 -19 -500 -30 -201
-10 -776 -4 -995 10 -55 4 -122 8 -150 10 -89 5 -229 16 -255 20 -14 2 -61 7
-105 11 -44 3 -89 8 -100 10 -10 2 -49 6 -85 9 -36 4 -72 8 -80 10 -8 2 -42 7
-75 10 -33 4 -67 8 -75 10 -8 2 -35 7 -60 10 -48 6 -378 61 -420 70 -14 3 -41
8 -60 11 -19 4 -44 8 -55 11 -11 2 -40 8 -65 13 -25 5 -88 18 -140 30 -52 12
-106 24 -120 26 -151 29 -665 174 -980 277 -195 64 -629 227 -775 292 -16 7
-104 45 -195 85 -176 77 -582 275 -740 361 -81 44 -151 83 -360 201 -112 64
-424 261 -605 383 -215 145 -474 331 -476 343 -3 16 -5 2548 -2 2557 2 7 993
10 2948 10 1973 0 2946 3 2948 10 2 5 3 3464 3 7685 l-1 7675 -180 0 -180 0 0
-7477 c0 -4113 -2 -7479 -5 -7479 -3 -1 -1248 -2 -2767 -3 -1834 -1 -2764 2
-2766 9 -2 6 -3 533 -2 1173 0 639 -3 1162 -6 1162 -4 0 -33 -25 -66 -56 -61
-59 -342 -328 -447 -427 -150 -143 -233 -223 -401 -384 -99 -94 -205 -195
-237 -225 -31 -29 -134 -128 -230 -219 -95 -91 -215 -206 -267 -255 -52 -49
-113 -107 -136 -129 -23 -22 -122 -116 -220 -210 -98 -93 -204 -195 -235 -225
-32 -30 -95 -91 -142 -135 l-84 -80 -67 0 c-37 0 -68 -4 -70 -10 -2 -5 -3 -54
-3 -107 1 -54 -2 -98 -7 -98 -18 0 -376 570 -512 815 -15 28 -46 84 -69 125
-23 41 -47 84 -53 95 -5 11 -18 34 -27 50 -30 54 -270 538 -310 625 -263 572
-522 1284 -672 1845 -32 120 -123 484 -129 513 -2 12 -6 30 -9 40 -3 9 -7 28
-10 42 -3 14 -21 102 -40 195 -43 212 -96 510 -121 685 -3 25 -8 56 -10 70 -2
14 -7 50 -10 80 -4 30 -9 63 -10 72 -2 9 -7 48 -10 85 -4 37 -8 75 -10 83 -2
8 -7 51 -11 95 -3 44 -8 87 -9 96 -2 9 -6 52 -10 95 -3 43 -8 96 -10 116 -2
20 -7 85 -10 145 -4 59 -8 131 -10 158 -22 313 -22 1226 0 1410 2 17 6 80 10
140 3 61 8 126 10 145 2 19 6 73 10 120 3 47 8 99 10 115 2 17 7 57 10 90 3
33 10 94 15 135 5 41 12 98 15 125 3 28 8 61 10 75 2 14 9 61 15 106 6 44 12
89 14 100 2 10 7 39 10 64 7 49 9 63 27 160 6 36 13 78 15 95 2 16 6 37 9 45
2 8 7 33 11 55 7 52 61 313 79 390 8 33 17 74 19 90 12 69 121 484 181 689
127 437 253 796 426 1221 133 324 346 778 509 1080 180 335 443 773 609 1015
28 41 72 107 98 145 135 199 581 789 632 835 3 3 42 48 86 100 478 571 1173
1235 1755 1675 87 66 81 62 115 88 82 65 409 293 574 402 1070 703 2217 1201
3451 1499 220 53 303 71 415 92 17 3 48 9 70 14 39 9 78 16 140 26 17 2 53 9
80 14 28 5 68 12 90 15 22 3 83 12 135 20 91 14 127 19 204 30 51 7 215 26
261 30 22 2 72 7 110 11 39 3 88 8 110 9 40 3 158 12 250 20 28 2 129 7 225
11 96 3 176 7 177 7 5 5 544 -1 698 -7z m-7387 -18038 l-3 -373 -773 0 -773 0
89 85 c49 47 161 153 248 237 88 83 175 166 194 184 19 18 82 78 140 133 220
211 454 434 790 754 l85 81 3 -364 c1 -200 1 -531 0 -737z m14197 901 c55 -53
136 -131 180 -172 44 -41 107 -102 141 -134 33 -32 130 -124 215 -205 85 -80
181 -172 215 -205 56 -53 289 -276 501 -478 l84 -80 -773 0 -773 0 -3 740 -2
739 57 -54 c32 -30 103 -98 158 -151z m1909 -1571 c-44 -66 -48 -69 -39 -38 6
21 62 90 72 90 2 0 -13 -24 -33 -52z m-16104 -1251 l0 -1138 -92 78 c-81 68
-242 208 -274 238 -6 5 -51 46 -100 89 -112 100 -635 624 -729 730 -39 44 -91
102 -116 130 -64 70 -266 308 -369 436 -91 112 -430 562 -430 570 0 3 475 5
1055 5 l1055 0 0 -1138z m16020 1134 c0 -9 -141 -199 -352 -476 -51 -67 -351
-427 -403 -485 -18 -19 -77 -84 -131 -145 -306 -340 -760 -778 -1091 -1055
l-63 -52 0 1105 c0 728 3 1106 10 1109 15 5 2030 4 2030 -1z"/>
</g>
</svg>
